<?xml version="1.0" encoding="utf-8"?>
<!-- Generator: Adobe Illustrator 21.1.0, SVG Export Plug-In . SVG Version: 6.00 Build 0)  -->
<svg version="1.1" id="Layer_1" xmlns="http://www.w3.org/2000/svg" xmlns:xlink="http://www.w3.org/1999/xlink" x="0px" y="0px"
	 viewBox="0 0 32 32" style="enable-background:new 0 0 32 32;" xml:space="preserve">
<style type="text/css">
	.st0{fill:#2A2A95;}
</style>
<title>Classroom2</title>
<path class="st0" d="M8.2,29H1.5c-0.2,0-0.5,0-0.7-0.1c-0.2-0.1-0.4-0.3-0.4-0.5c-0.1-2.2,0-4.4,0.4-6.6c0.3-1.1,1-2.1,2-2.8
	c1.5-1.1,3.4-1.7,5.3-1.7c2-0.1,3.9,0,6-0.1c0.6-0.1,1.3-0.2,1.9-0.4c0.1,0,0.3-0.1,0.4-0.1c1-0.2,2-0.4,2.9-0.8
	c0.7-0.3,1.4-0.6,2-0.9l1.4-0.7l3.4-1.7c0.1-0.1,0.2-0.1,0.3-0.1c0.6,0,0.7-0.4,0.9-0.9c0.2-0.5,0.5-0.9,0.8-1.3
	c0.1-0.1,0.7,0,0.9,0.1c0.6,0.5,0.8,0.9,0.5,1.4c-0.5,0.8-0.6,1.8-0.1,2.6c0.2,0.4,0.2,0.9,0,1.3c-0.3,0.9-1,1.6-1.8,2
	c-1.2,0.8-2.3,1.5-3.5,2.2c-0.5,0.3-1.2,0.5-1.7,0.8s-1.2,0.6-1.8,0.9s-1.4,0.5-2.1,0.8l-0.7,0.3c-0.2,0.1-0.3,0.2-0.5,0.2
	c-1,0.3-1,0.3-1,1.4v3.7c0,0.7-0.1,0.8-0.8,0.8L8.2,29z"/>
<path class="st0" d="M4.2,10.8C3.9,8,6.5,5.5,9.3,5.6c2.9,0,5.2,2.3,5.3,5.2c0,0,0,0,0,0c0,0,0,0.1,0,0.1c0.1,2.8-2.2,5.2-5,5.2H9.3
	c-2.8,0.1-5.1-2.1-5.2-4.9C4.2,11,4.2,10.9,4.2,10.8z"/>
<path class="st0" d="M24.6,6.2h-6.2c-0.6,0-0.8-0.2-0.8-0.8s0.2-0.8,0.8-0.8h12.2c0.8,0,1,0.2,1,0.9s-0.2,0.8-0.8,0.8L24.6,6.2
	L24.6,6.2z"/>
<path class="st0" d="M21.7,8.4h3.4c0.6,0,0.8,0.2,0.8,0.7s-0.4,0.6-0.8,0.6h-6.7c-0.6,0-0.8-0.1-0.8-0.7s0.2-0.7,0.8-0.7H21.7z"/>
</svg>
