<?xml version="1.0" encoding="utf-8"?>
<!-- Generator: Adobe Illustrator 21.1.0, SVG Export Plug-In . SVG Version: 6.00 Build 0)  -->
<svg version="1.1" id="Development_solid" xmlns="http://www.w3.org/2000/svg" xmlns:xlink="http://www.w3.org/1999/xlink" x="0px"
	 y="0px" viewBox="0 0 120 120" style="enable-background:new 0 0 120 120;" xml:space="preserve">
<style type="text/css">
	.st0{fill:#2A2A95;}
</style>
<title>Development_solid</title>
<g id="Solid">
	<g id="Development">
		<path id="Fill-141" class="st0" d="M112.5,97.5H7.5v-3.8h42.2c0.9,1.2,2.3,1.9,3.7,1.9h15c1.5,0,2.9-0.7,3.7-1.9h40.3V97.5z
			 M15,28.1c0-1,0.8-1.9,1.9-1.9h86.2c1,0,1.9,0.8,1.9,1.9v56.2c0,1-0.8,1.9-1.9,1.9H16.9c-1,0-1.9-0.8-1.9-1.9V28.1z M113.3,90
			h-0.8V26.2c0-4.1-3.4-7.5-7.5-7.5H15c-4.1,0-7.5,3.4-7.5,7.5V90H6.7c-1.6,0-3,1.3-3,3v5.3c0,1.6,1.3,3,3,3h106.6c1.6,0,3-1.3,3-3
			V93C116.2,91.3,114.9,90,113.3,90z"/>
		<path id="Fill-142" class="st0" d="M81.9,57.6L70.7,68.8c-0.7,0.7-1.9,0.7-2.6,0c0,0,0,0,0,0c-0.7-0.7-0.7-1.9,0-2.7l9.9-9.9
			L68,46.3c-0.7-0.8-0.7-1.9,0.1-2.7c0.7-0.7,1.9-0.7,2.6,0l11.2,11.3C82.7,55.7,82.7,56.8,81.9,57.6z M60,67.8
			c-0.2,1-1.2,1.7-2.2,1.5c-1-0.2-1.6-1.1-1.5-2.1L60,44.7c0.2-1,1.1-1.7,2.2-1.5c1,0.2,1.7,1.1,1.5,2.2l0,0L60,67.8L60,67.8z
			 M52,68.8c-0.4,0.4-0.8,0.6-1.3,0.5c-0.5,0-1-0.2-1.3-0.5L38.1,57.7c-0.8-0.7-0.9-1.9-0.2-2.6c0,0,0.1-0.1,0.1-0.1l11.3-11.3
			c0.7-0.7,1.9-0.7,2.7,0c0.7,0.7,0.7,1.9,0,2.7L42,56.2l9.9,9.9C52.7,66.9,52.7,68.1,52,68.8C52,68.8,52,68.8,52,68.8L52,68.8z
			 M18.8,82.5h82.5V30H18.8V82.5z"/>
	</g>
</g>
</svg>
