<svg xmlns="http://www.w3.org/2000/svg" viewBox="0 0 29.4 22.71"><defs><style>.cls-1{fill:#2b3589;}</style></defs><title>Asset 1</title><g id="Layer_2" data-name="Layer 2"><g id="Layer_1-2" data-name="Layer 1"><path class="cls-1" d="M26.6.71A15,15,0,0,0,21.9,0a12.43,12.43,0,0,0-7.3,2C12.7.51,9.8,0,7.3,0S1.8.51,0,2v19.5a.74.74,0,0,0,.7.7H1a16.3,16.3,0,0,1,6.4-1.5c2.5,0,5.5.5,7.3,2a15.7,15.7,0,0,1,7.3-2,13.17,13.17,0,0,1,6.4,1.5h.3a.74.74,0,0,0,.7-.7V2A17.8,17.8,0,0,0,26.6.71Zm0,18a15,15,0,0,0-12,1.3V4.71a15.7,15.7,0,0,1,7.3-2,12.52,12.52,0,0,1,4.7.7Z"/></g></g></svg>