<svg id="Layer_1" data-name="Layer 1" xmlns="http://www.w3.org/2000/svg" xmlns:xlink="http://www.w3.org/1999/xlink" viewBox="0 0 32 32"><defs><style>.cls-1{fill:none;}.cls-2{clip-path:url(#clip-path);}.cls-3{fill:#2a2a95;}</style><clipPath id="clip-path"><rect class="cls-1" width="32" height="32"/></clipPath></defs><title>Documentation</title><g class="cls-2"><path class="cls-3" d="M28,6.7A14.87,14.87,0,0,0,23.3,6,12.39,12.39,0,0,0,16,8c-1.9-1.5-4.8-2-7.3-2s-5.5.5-7.3,2V27.5a.75.75,0,0,0,.7.7h.3a16.19,16.19,0,0,1,6.4-1.5c2.5,0,5.5.5,7.3,2a15.67,15.67,0,0,1,7.3-2,13.11,13.11,0,0,1,6.4,1.5h.3a.75.75,0,0,0,.7-.7V8A18.17,18.17,0,0,0,28,6.7Zm0,18a14.87,14.87,0,0,0-4.7-.7A15,15,0,0,0,16,26V10.7a15.67,15.67,0,0,1,7.3-2,12.49,12.49,0,0,1,4.7.7Z"/></g></svg>