<svg id="Layer_1" data-name="Layer 1" xmlns="http://www.w3.org/2000/svg" viewBox="0 0 249.16 70.58"><defs><style>.cls-1{fill:#2f2a95;}.cls-2{fill:#00b2a9;}</style></defs><title>ICS-logo</title><path class="cls-1" d="M42.73,39.93H38V14.27h4.78Z"/><path class="cls-1" d="M61.76,39.93h-4.7V29.2a3.49,3.49,0,1,0-7,0V39.93h-4.7V21.54h4.7v1.6A5.46,5.46,0,0,1,54.39,21c3.74,0,7.38,2.57,7.38,8Z"/><path class="cls-1" d="M73.63,35.69v4.24H69.11c-3.28,0-4.7-1.75-4.7-4.7V17.37h4.7v4.17h4.53v4.24H69.11v8.45c0,.86.21,1.46,1.35,1.46Z"/><path class="cls-1" d="M79.83,32v.11a3.27,3.27,0,0,0,3.49,3.6,3.21,3.21,0,0,0,3.24-2h4.78c-.75,3.85-3.53,6.27-8,6.27-5.27,0-8.2-3.35-8.2-8.45V29.13c0-5.1,2.92-8.45,8.2-8.45s8.2,3.35,8.2,8.45V32Zm0-3.92v0h7v0a3.16,3.16,0,0,0-3.46-3.14A3.23,3.23,0,0,0,79.83,28.06Z"/><path class="cls-1" d="M98.94,39.93h-4.7V21.54h4.7v2a4.55,4.55,0,0,1,4.28-2.32h1.43v4.6h-2.21a3.3,3.3,0,0,0-3.49,3.56Z"/><path class="cls-1" d="M106.9,31.7h4.92a4,4,0,0,0,4.31,3.49c2.1,0,3.56-.78,3.56-2.5,0-1.39-.82-2.17-2.57-2.64l-4.21-1.14a7.13,7.13,0,0,1-5.7-7.38c0-5,3.92-7.27,8.27-7.27,5,0,8.09,2.92,8.63,7.16H119.2C118.77,19.76,117,19,115.42,19c-2,0-3.42.78-3.42,2.53,0,1.46,1.14,2.1,2.5,2.46l4.06,1.11c3.85,1,5.92,3.39,5.92,7.59,0,4.49-2.92,7.24-8.34,7.24S107.15,36.65,106.9,31.7Z"/><path class="cls-1" d="M135.87,41.57c-1,2.78-1.28,4.81-4.56,4.81h-3.49V42.14h2a1.14,1.14,0,0,0,1.25-.82l.53-1.5L125,21.43h5l4.1,11.73,4.1-11.73h5Z"/><path class="cls-1" d="M142.68,33.62h4.7c.21,1.43,1.89,2.07,3.42,2.07.93,0,2.32-.21,2.32-1.43,0-.75-.53-1.18-1.64-1.43L147.63,32a5.55,5.55,0,0,1-4.53-5.63c0-3.6,3.24-5.67,7-5.67s6.81,1.78,7.13,6h-4.81A2.28,2.28,0,0,0,150,24.93c-1.35,0-2.14.53-2.17,1.39s.64,1.18,1.43,1.35l4.13.93a5.37,5.37,0,0,1,4.46,5.67c0,4.1-3.31,5.67-7.16,5.67S142.86,38,142.68,33.62Z"/><path class="cls-1" d="M175.31,32v.11a3.27,3.27,0,0,0,3.49,3.6,3.21,3.21,0,0,0,3.24-2h4.78c-.75,3.85-3.53,6.27-8,6.27-5.27,0-8.2-3.35-8.2-8.45V29.13c0-5.1,2.92-8.45,8.2-8.45S187,24,187,29.13V32Zm0-3.92v0h7v0a3.16,3.16,0,0,0-3.46-3.14A3.23,3.23,0,0,0,175.31,28.06Z"/><path class="cls-1" d="M205.9,39.93h-4.71V29.2a3.39,3.39,0,1,0-6.77,0V39.93h-4.7V21.54h4.7v1.53a5.27,5.27,0,0,1,4.17-2,5.91,5.91,0,0,1,5,2.42A7,7,0,0,1,209.28,21c4.67,0,8.09,2.6,8.09,8V39.93h-4.7V29.2a3.39,3.39,0,1,0-6.77,0Z"/><path class="cls-1" d="M219.15,33.62h4.71c.21,1.43,1.89,2.07,3.42,2.07.93,0,2.32-.21,2.32-1.43,0-.75-.53-1.18-1.64-1.43L224.11,32a5.55,5.55,0,0,1-4.53-5.63c0-3.6,3.24-5.67,7-5.67s6.81,1.78,7.13,6h-4.81a2.28,2.28,0,0,0-2.46-1.71c-1.35,0-2.14.53-2.17,1.39s.64,1.18,1.43,1.35l4.13.93a5.37,5.37,0,0,1,4.46,5.67c0,4.1-3.31,5.67-7.16,5.67S219.33,38,219.15,33.62Z"/><path class="cls-1" d="M168.62,35.69v4.24h-4.53c-3.28,0-4.7-1.75-4.7-4.7V17.37h4.7v4.17h4.53v4.24h-4.53v8.45c0,.86.21,1.46,1.35,1.46Z"/><path class="cls-1" d="M43.33,49.48h1.83V59H43.33V55.12H39.78V59H38V49.48h1.83V53.3h3.55Z"/><path class="cls-1" d="M48.61,56.13v0A1.25,1.25,0,0,0,50,57.55a1.23,1.23,0,0,0,1.24-.78H53A2.86,2.86,0,0,1,50,59.17a2.94,2.94,0,0,1-3.14-3.24V55a3.14,3.14,0,1,1,6.28,0v1.09Zm0-1.5h2.66A1.21,1.21,0,0,0,50,53.43,1.24,1.24,0,0,0,48.61,54.63Z"/><path class="cls-1" d="M58.93,54.45a1.36,1.36,0,0,0-2.55-.25H54.56a2.85,2.85,0,0,1,3.06-2.4A2.94,2.94,0,0,1,60.76,55v4H59v-.81a2.08,2.08,0,0,1-2,.94c-1.61,0-2.57-.79-2.57-2.09A2,2,0,0,1,55.77,55a11.37,11.37,0,0,1,3.17-.52Zm-2.7,2.43c0,.34.26.71,1.06.71A1.48,1.48,0,0,0,59,56.18V56a8.88,8.88,0,0,0-2.35.33A.57.57,0,0,0,56.23,56.88Z"/><path class="cls-1" d="M65.14,57.41V59h-.87a1.6,1.6,0,0,1-1.8-1.8V49.48h1.8v7.37c0,.33.08.56.52.56Z"/><path class="cls-1" d="M70.39,57.41V59H68.65a1.6,1.6,0,0,1-1.8-1.8V53.62h-1V52h1V50.4h1.8V52h1.73v1.62H68.65v3.24c0,.33.08.56.52.56Z"/><path class="cls-1" d="M78,59h-1.8V54.93a1.34,1.34,0,1,0-2.68,0V59h-1.8V49.48h1.8v3.13a2.09,2.09,0,0,1,1.65-.81A2.79,2.79,0,0,1,78,54.86Z"/><path class="cls-1" d="M90.89,49.41h4c1.94,0,3,1.09,3,2.74A2.34,2.34,0,0,1,97,54.08a2.61,2.61,0,0,1,1.09,2.09c0,1.69-1.06,2.8-3,2.8H90.89Zm4,1.82H92.72v2h2.17c.7,0,1.15-.36,1.15-1S95.58,51.23,94.89,51.23Zm.23,5.93c.75,0,1.15-.38,1.15-1.05a1,1,0,0,0-1.15-1.05h-2.4v2.1Z"/><path class="cls-1" d="M103.84,56V51.92h1.8v7h-1.8v-.76a1.92,1.92,0,0,1-1.71.9A2.74,2.74,0,0,1,99.45,56V51.92h1.8V56a1.3,1.3,0,1,0,2.59,0Z"/><path class="cls-1" d="M107,56.69h1.8c.08.55.72.79,1.31.79.35,0,.89-.08.89-.55,0-.29-.21-.45-.63-.55l-1.47-.33a2.12,2.12,0,0,1-1.73-2.16c0-1.38,1.24-2.17,2.69-2.17A2.43,2.43,0,0,1,112.57,54h-1.84a.87.87,0,0,0-.94-.66c-.52,0-.82.2-.83.53s.25.45.55.52l1.58.36a2.06,2.06,0,0,1,1.71,2.17c0,1.57-1.27,2.17-2.74,2.17S107,58.36,107,56.69Z"/><path class="cls-1" d="M116,51h-1.8v-1.6H116Zm0,8h-1.8v-7H116Z"/><path class="cls-1" d="M124.09,59h-1.8V54.86a1.34,1.34,0,1,0-2.68,0V59h-1.8v-7h1.8v.61a2.09,2.09,0,0,1,1.65-.81,2.79,2.79,0,0,1,2.83,3.06Z"/><path class="cls-1" d="M127.4,56.06v0a1.25,1.25,0,0,0,1.34,1.38A1.23,1.23,0,0,0,130,56.7h1.83a2.86,2.86,0,0,1-3.07,2.4,2.94,2.94,0,0,1-3.14-3.24V55a3.14,3.14,0,1,1,6.28,0v1.09Zm0-1.5h2.66a1.21,1.21,0,0,0-1.32-1.2A1.24,1.24,0,0,0,127.4,54.56Z"/><path class="cls-1" d="M133,56.69h1.8c.08.55.72.79,1.31.79.35,0,.89-.08.89-.55,0-.29-.2-.45-.63-.55l-1.47-.33a2.12,2.12,0,0,1-1.73-2.16c0-1.38,1.24-2.17,2.69-2.17A2.43,2.43,0,0,1,138.57,54h-1.84a.87.87,0,0,0-.94-.66c-.52,0-.82.2-.83.53s.25.45.55.52l1.58.36a2.06,2.06,0,0,1,1.71,2.17c0,1.57-1.27,2.17-2.74,2.17S133.05,58.36,133,56.69Z"/><path class="cls-1" d="M139.61,56.69h1.8c.08.55.72.79,1.31.79.35,0,.89-.08.89-.55,0-.29-.21-.45-.63-.55l-1.47-.33a2.12,2.12,0,0,1-1.73-2.16c0-1.38,1.24-2.17,2.69-2.17A2.43,2.43,0,0,1,145.19,54h-1.84a.87.87,0,0,0-.94-.66c-.52,0-.82.2-.83.53s.25.45.55.52l1.58.36a2.06,2.06,0,0,1,1.71,2.17c0,1.57-1.27,2.17-2.74,2.17S139.68,58.36,139.61,56.69Z"/><path class="cls-1" d="M162,53.58h3.6v2.06a3.6,3.6,0,0,1-7.21,0V52.88a3.61,3.61,0,0,1,7.19-.38h-1.84a1.79,1.79,0,0,0-3.52.38v2.76a1.78,1.78,0,0,0,3.55,0v-.25H162Z"/><path class="cls-1" d="M166.93,55a3.14,3.14,0,1,1,6.28,0v.9a3.14,3.14,0,1,1-6.28,0Zm4.48-.23a1.34,1.34,0,1,0-2.68,0v1.37a1.34,1.34,0,1,0,2.68,0Z"/><path class="cls-1" d="M178.89,52h1.9l-2.54,7h-1.86l-2.54-7h1.9l1.57,4.49Z"/><path class="cls-1" d="M183.23,56.13v0a1.25,1.25,0,0,0,1.34,1.38,1.23,1.23,0,0,0,1.24-.78h1.83a2.86,2.86,0,0,1-3.07,2.4,2.94,2.94,0,0,1-3.14-3.24V55a3.14,3.14,0,1,1,6.28,0v1.09Zm0-1.5h2.66a1.21,1.21,0,0,0-1.32-1.2A1.24,1.24,0,0,0,183.23,54.63Z"/><path class="cls-1" d="M191.11,59h-1.8V52h1.8v.76a1.74,1.74,0,0,1,1.64-.89h.55v1.76h-.85A1.27,1.27,0,0,0,191.11,55Z"/><path class="cls-1" d="M200.75,59h-1.8V54.93a1.34,1.34,0,1,0-2.68,0V59h-1.8V52h1.8v.61a2.09,2.09,0,0,1,1.65-.81,2.79,2.79,0,0,1,2.83,3.06Z"/><path class="cls-1" d="M208.68,59h-1.8V54.93a1.3,1.3,0,1,0-2.59,0V59h-1.8V52h1.8v.59a2,2,0,0,1,1.6-.78,2.26,2.26,0,0,1,1.9.93,2.68,2.68,0,0,1,2.2-.93,2.83,2.83,0,0,1,3.1,3.06V59h-1.8V54.93a1.3,1.3,0,1,0-2.59,0Z"/><path class="cls-1" d="M216.39,56.13v0a1.25,1.25,0,0,0,1.34,1.38,1.23,1.23,0,0,0,1.24-.78h1.83a2.86,2.86,0,0,1-3.07,2.4,2.94,2.94,0,0,1-3.14-3.24V55a3.14,3.14,0,1,1,6.28,0v1.09Zm0-1.5h2.66a1.21,1.21,0,0,0-1.32-1.2A1.24,1.24,0,0,0,216.39,54.63Z"/><path class="cls-1" d="M228.75,59h-1.8V54.93a1.34,1.34,0,1,0-2.68,0V59h-1.8V52h1.8v.61a2.09,2.09,0,0,1,1.65-.81,2.79,2.79,0,0,1,2.83,3.06Z"/><path class="cls-1" d="M234.24,57.41V59h-1.73a1.6,1.6,0,0,1-1.8-1.8V53.62h-1V52h1V50.4h1.8V52h1.73v1.62h-1.73v3.24c0,.33.08.56.52.56Z"/><rect class="cls-2" x="83.57" y="49.48" width="1.77" height="9.56"/><rect class="cls-2" x="150.96" y="49.48" width="1.77" height="9.56"/><path class="cls-1" d="M239.08,20.63a2.93,2.93,0,1,1-2.93,2.93A2.93,2.93,0,0,1,239.08,20.63Zm0,5.34a2.41,2.41,0,1,0-2.4-2.41A2.4,2.4,0,0,0,239.08,26Zm1.42-.71-.86-1.47a.89.89,0,0,0,.76-1,.94.94,0,0,0-1.06-1h-1.39v3.41h.55V23.83H239l.85,1.44Zm-2-2.85h.83c.29,0,.49.15.49.44s-.2.43-.49.43h-.83Z"/><polygon class="cls-1" points="14.3 15.1 7.25 11.57 7.25 56.34 21.35 63.39 21.35 55.51 14.3 51.98 14.3 15.1"/><polygon class="cls-2" points="21.35 55.51 28.41 59.04 28.41 14.27 14.3 7.21 14.3 15.1 21.35 18.62 21.35 55.51"/></svg>