<svg xmlns="http://www.w3.org/2000/svg" viewBox="0 0 127.2 127.2"><defs><style>.cls-1{fill:#fff;}.cls-2,.cls-3{fill:#2e3191;}.cls-3,.cls-4{stroke:#888;stroke-miterlimit:10;}.cls-4{fill:none;stroke-width:12px;}.cls-5{fill:#25b4a9;}</style></defs><title>IRIS</title><g id="Layer_2" data-name="Layer 2"><g id="Layer_1-2" data-name="Layer 1"><rect class="cls-1" x="6" y="6" width="115.2" height="115.2"/><path class="cls-2" d="M127.2,127.2H0V0H127.2ZM12,115.2H115.2V12H12Z"/><path class="cls-3" d="M69.58,80.74"/><path class="cls-3" d="M86.83,77.57"/><path class="cls-4" d="M40,36.43"/><path class="cls-4" d="M68,36.43"/><path class="cls-5" d="M46.67,88.11H37.29v-49h9.38Z"/><path class="cls-5" d="M67.95,67.95V88.11H58.57v-49H79.22c9.94,0,15.47,5.6,15.47,14.42,0,7.28-3.71,12.32-10.57,13.93L96.3,88.11H85.52L73.69,67.95ZM79.43,48.41H67.95V58.84H79.43c3.57,0,5.88-1.82,5.88-5.18S83,48.41,79.43,48.41Z"/><rect class="cls-5" x="32.87" y="39.09" width="18.17" height="8.62"/><rect class="cls-5" x="32.87" y="79.43" width="18.17" height="8.68"/></g></g></svg>