<svg xmlns="http://www.w3.org/2000/svg" viewBox="0 0 430.37 384"><defs><style>.cls-1,.cls-2,.cls-4{fill:#29398a;}.cls-2{stroke:#29398a;stroke-miterlimit:10;stroke-width:17px;}.cls-3{fill:#fff;}.cls-4{fill-rule:evenodd;}</style></defs><title>platform</title><g id="Layer_1" data-name="Layer 1"><rect class="cls-1" x="107.35" y="366.17" width="225.7" height="17.83" rx="0.4" ry="0.4"/><path class="cls-2" d="M8.5,298.05V65.41A26.67,26.67,0,0,1,35.13,38.78H395.24a26.67,26.67,0,0,1,26.63,26.63V298.05a26.67,26.67,0,0,1-26.63,26.64H35.13A26.67,26.67,0,0,1,8.5,298.05ZM35.13,50.89A14.54,14.54,0,0,0,20.61,65.41V298.05a14.54,14.54,0,0,0,14.52,14.53H395.24a14.54,14.54,0,0,0,14.52-14.53V65.41a14.54,14.54,0,0,0-14.52-14.52Z"/><rect class="cls-1" x="178.27" y="317.13" width="77.22" height="57.95"/></g><g id="Layer_3" data-name="Layer 3"><g id="Layer_4" data-name="Layer 4"><rect class="cls-3" x="86.2" y="29.96" width="221.6" height="155.8"/></g><path class="cls-4" d="M277.7,0H116.3C86.58,0,62.5,9.76,62.5,21.8V196.2c0,12,24.08,21.8,53.8,21.8H277.7c29.72,0,53.8-9.76,53.8-21.8V21.8C331.5,9.76,307.42,0,277.7,0ZM89.4,179.85H304.6V32.7H89.4Z"/></g><g id="Layer_2" data-name="Layer 2"><rect class="cls-3" x="300.5" y="172" width="89" height="146"/><path class="cls-4" d="M377,139.66H311.36a21.86,21.86,0,0,0-21.86,21.86V336.41a21.87,21.87,0,0,0,21.86,21.87H377a21.87,21.87,0,0,0,21.86-21.87V161.52A21.86,21.86,0,0,0,377,139.66ZM300.43,320h87.45V172.45H300.43Z"/></g></svg>