<?xml version="1.0" encoding="utf-8"?>
<!-- Generator: Adobe Illustrator 21.1.0, SVG Export Plug-In . SVG Version: 6.00 Build 0)  -->
<svg version="1.1" id="Layer_1" xmlns="http://www.w3.org/2000/svg" xmlns:xlink="http://www.w3.org/1999/xlink" x="0px" y="0px"
	 viewBox="0 0 32 32" style="enable-background:new 0 0 32 32;" xml:space="preserve">
<style type="text/css">
	.st0{clip-path:url(#SVGID_2_);}
	.st1{fill:#2A2A95;}
</style>
<title>Website</title>
<g>
	<defs>
		<rect id="SVGID_1_" width="32" height="32"/>
	</defs>
	<clipPath id="SVGID_2_">
		<use xlink:href="#SVGID_1_"  style="overflow:visible;"/>
	</clipPath>
	<g class="st0">
		<path class="st1" d="M26.7,24c1.5,0,2.7-1.2,2.7-2.7c0,0,0,0,0,0V8c0-1.5-1.2-2.7-2.7-2.7c0,0,0,0,0,0H5.3C3.8,5.3,2.7,6.5,2.7,8
			v13.3c0,1.5,1.2,2.7,2.7,2.7c0,0,0,0,0,0H0v2.7h32V24H26.7z M5.3,8h21.3v13.3H5.3V8z"/>
	</g>
</g>
</svg>
