<svg xmlns="http://www.w3.org/2000/svg" width="23" height="24" viewBox="0 0 23 24">
  <g fill="none" fill-rule="evenodd">
    <path fill="#2B2B2B" fill-rule="nonzero" d="M17,0 C18.1045695,0 19,0.8954305 19,2 L19,2 L19.001093,3.93606293 C18.3725454,3.62359468 17.7022881,3.38245124 17.0009121,3.22322343 L17,2 L2,2 L2,22 L17,22 L17.0009121,20.7767766 C17.7022881,20.6175488 18.3725454,20.3764053 19.001093,20.0639371 L19,22 C19,23.1045695 18.1045695,24 17,24 L17,24 L2,24 C0.8954305,24 0,23.1045695 0,22 L0,22 L0,2 C0,0.8954305 0.8954305,0 2,0 L2,0 Z"/>
    <path fill="#2B2B2B" d="M12.322872,12.322872 C11.2113063,13.4331666 9.68473067,14.1170115 7.98973597,14.1176471 C6.77838993,14.1176471 5.65538444,13.7630137 4.70588235,13.1573407 L13.1573407,4.70588235 C13.7630137,5.65538444 14.1176471,6.77775439 14.1176471,7.98973597 C14.1170115,9.68473067 13.4331666,11.2113063 12.322872,12.322872 M3.61287131,3.61287131 C4.68464065,2.54232754 6.15717451,1.88296573 7.79087209,1.88235294 C9.10591897,1.88296573 10.3112765,2.31498253 11.2923529,3.03991285 L3.03991285,11.2923529 C2.31559532,10.3112765 1.88296573,9.10530618 1.88235294,7.79087209 C1.88296573,6.15717451 2.54294033,4.68464065 3.61287131,3.61287131 M13.6565723,2.34342768 C12.2115686,0.896443601 10.2061226,0 8,0 C5.79321726,0 3.78843139,0.896443601 2.34342768,2.34342768 C0.897103721,3.78843139 0,5.79321726 0,8 C0,10.2061226 0.897103721,12.2115686 2.34342768,13.6565723 C3.78843139,15.1028963 5.79321726,16 8,16 C10.2061226,16 12.2115686,15.1028963 13.6565723,13.6565723 C15.1028963,12.2115686 16,10.2061226 16,8 C16,5.79321726 15.1028963,3.78843139 13.6565723,2.34342768" transform="translate(7 4)"/>
  </g>
</svg>
