<svg xmlns="http://www.w3.org/2000/svg" width="30" height="30" viewBox="0 0 30 30">
  <path fill="#2B2B2B" fill-rule="evenodd" d="M15.205,17 C14.101,17 13.205,16.104 13.205,15 C13.205,13.896 14.101,13 15.205,13 C16.309,13 17.205,13.896 17.205,15 C17.205,16.104 16.309,17 15.205,17 M15.205,10 C12.444,10 10.205,12.239 10.205,15 C10.205,17.761 12.444,20 15.205,20 C17.966,20 20.205,17.761 20.205,15 C20.205,12.239 17.966,10 15.205,10 M4.441,15 C5.767,16.749 10.171,22 15.205,22 C20.239,22 24.643,16.749 25.969,15 C24.643,13.251 20.239,8 15.205,8 C10.171,8 5.767,13.251 4.441,15 M15.205,24 C8.126,24 2.606,15.902 2.375,15.558 L2,15 L2.375,14.442 C2.606,14.098 8.126,6 15.205,6 C22.284,6 27.804,14.098 28.035,14.442 L28.41,15 L28.035,15.558 C27.804,15.902 22.284,24 15.205,24"/>
</svg>
