<svg xmlns="http://www.w3.org/2000/svg" width="30" height="30" viewBox="0 0 30 30">
  <path fill="#2B2B2B" fill-rule="evenodd" d="M14.6488,8.07261905 C18.7472,8.07261905 22.0688,8.7032381 22.0688,9.482 C22.0688,10.2607619 18.7472,10.891381 14.6488,10.891381 C10.5512,10.891381 7.2288,10.2607619 7.2288,9.482 C7.2288,8.7032381 10.5512,8.07261905 14.6488,8.07261905 L14.6488,8.07261905 Z M24.1496,9.93452381 C24.24,9.79609524 24.2976,9.6552381 24.2976,9.51033333 C24.2976,8.12361905 19.9776,7 14.6488,7 C9.32,7 5,8.12361905 5,9.51033333 C5,9.6552381 5.0576,9.79609524 5.1488,9.93452381 L5.136,9.93209524 L5.1672,9.96609524 C5.2232,10.0462381 5.2944,10.1247619 5.3792,10.2016667 L13.1832,18.8433333 L13.1832,23.745 L16.1152,23.745 L16.1152,18.8433333 L23.92,10.1992381 C24.004,10.1231429 24.0744,10.0462381 24.1304,9.96690476 L24.1616,9.93209524 L24.1496,9.93452381 Z"/>
</svg>
