<?xml version="1.0" encoding="UTF-8"?>
<svg width="32px" height="32px" viewBox="0 0 32 32" version="1.1" xmlns="http://www.w3.org/2000/svg" xmlns:xlink="http://www.w3.org/1999/xlink">
    <!-- Generator: Sketch 52.5 (67469) - http://www.bohemiancoding.com/sketch -->
    <title>Solid/cog</title>
    <desc>Created with Sketch.</desc>
    <defs>
        <path d="M27.972332,18.2576939 L30.7134683,19.8399449 C31.0265223,20.0206248 31.1718251,20.3942699 31.0646008,20.7394848 C30.3525588,23.0320411 29.1368775,25.1032018 27.5469079,26.8234231 C27.3018362,27.0887182 26.9057081,27.1489173 26.5928875,26.9684043 L23.8538095,25.3864106 C22.7013607,26.3738504 21.3764228,27.1399108 19.9456835,27.6460341 L19.9456835,30.8095071 C19.9456888,31.1709003 19.6951397,31.4839998 19.3425383,31.5632295 C17.0941068,32.0681553 14.6792748,32.0942699 12.3173797,31.5636797 C11.9642532,31.484371 11.7125621,31.1715743 11.7125621,30.8096357 L11.7125621,27.6460341 C10.2818092,27.1399404 8.95686612,26.373877 7.80443614,25.3864106 L5.06535818,26.9684043 C4.75253759,27.1489173 4.3564095,27.0887182 4.11133779,26.8234231 C2.52143245,25.1032018 1.3056868,23.0320411 0.593644886,20.7394848 C0.486420507,20.3943342 0.63172337,20.0206891 0.944777391,19.8399449 L3.68597797,18.2576939 C3.41064986,16.7651774 3.41064986,15.2348869 3.68597797,13.7423704 L0.944841713,12.1601194 C0.631787692,11.9794395 0.486484829,11.6057944 0.593709208,11.2605795 C1.30575113,8.96802324 2.52143245,6.89686247 4.11140211,5.17664123 C4.35647382,4.91134611 4.75260191,4.85114703 5.0654225,5.03165998 L7.80450046,6.61365374 C8.95694929,5.62621394 10.2818872,4.86015347 11.7126265,4.3540302 L11.7126265,1.19049293 C11.7126212,0.829099697 11.9631703,0.516000183 12.3157716,0.436770509 C14.5642032,-0.0681553313 16.9790351,-0.0942699671 19.3409303,0.436320257 C19.6940568,0.515628991 19.9457478,0.828425725 19.9457478,1.19036429 L19.9457478,4.35396588 C21.3765008,4.86005953 22.7014439,5.62612301 23.8538738,6.61358942 L26.5929518,5.03159566 C26.9057724,4.85108271 27.3019005,4.91128179 27.5469722,5.17657691 C29.1368775,6.89679814 30.3526232,8.96795892 31.0646651,11.2605152 C31.1718895,11.6056658 31.0265866,11.9793109 30.7135326,12.1600551 L27.972332,13.7423061 C28.2476608,15.2348441 28.2476608,16.7651559 27.972332,18.2576939 Z M20.974896,16 C20.974896,13.1626384 18.6665166,10.8542589 15.829155,10.8542589 C12.9917934,10.8542589 10.6834139,13.1626384 10.6834139,16 C10.6834139,18.8373616 12.9917934,21.145741 15.829155,21.145741 C18.6665166,21.145741 20.974896,18.8373616 20.974896,16 Z" id="path-1"></path>
    </defs>
    <g id="Solid/cog" stroke="none" stroke-width="1" fill="none" fill-rule="evenodd">
        <mask id="mask-2" fill="white">
            <use xlink:href="#path-1"></use>
        </mask>
        <g id="Mask"></g>
        <g id="🎨-color" mask="url(#mask-2)" fill="#636363">
            <rect id="Black" x="0" y="0" width="32" height="32"></rect>
        </g>
    </g>
</svg>