<?xml version="1.0" encoding="UTF-8"?>
<svg width="145px" height="36px" viewBox="0 0 145 36" version="1.1" xmlns="http://www.w3.org/2000/svg" xmlns:xlink="http://www.w3.org/1999/xlink">
    <!-- Generator: Sketch 61.2 (89653) - https://sketch.com -->
    <title>logos/logo-healthshare</title>
    <desc>Created with Sketch.</desc>
    <defs>
        <polygon id="path-1" points="0.0002 0.9841 8.7122 0.9841 8.7122 33 0.0002 33"></polygon>
    </defs>
    <g id="logos/logo-healthshare" stroke="none" stroke-width="1" fill="none" fill-rule="evenodd">
        <g id="Group-54">
            <polygon id="Fill-1" fill="#323694" points="18.937 21.2391 21.887 21.2391 21.887 5.3881 18.937 5.3881"></polygon>
            <g id="Group-53" transform="translate(0.000000, 0.707100)">
                <path d="M33.6453,20.5333 L30.7393,20.5333 L30.7393,13.9043 C30.7393,12.3633 29.6823,11.7043 28.5813,11.7043 C27.4803,11.7043 26.4233,12.3633 26.4233,13.9043 L26.4233,20.5333 L23.5173,20.5333 L23.5173,9.1713 L26.4233,9.1713 L26.4233,10.1623 C26.9293,9.3913 28.0743,8.8623 29.0873,8.8623 C31.3993,8.8623 33.6453,10.4473 33.6453,13.7953 L33.6453,20.5333 Z" id="Fill-2" fill="#323694"></path>
                <path d="M40.9773,17.9122 L40.9773,20.5322 L38.1813,20.5322 C36.1553,20.5322 35.2743,19.4532 35.2743,17.6262 L35.2743,11.7912 L35.2743,9.1722 L35.2743,6.5952 L38.1813,6.5952 L38.1813,9.1722 L40.9773,9.1722 L40.9773,11.7912 L38.1813,11.7912 L38.1813,17.0102 C38.1813,17.5382 38.3133,17.9122 39.0173,17.9122 L40.9773,17.9122 Z" id="Fill-4" fill="#323694"></path>
                <path d="M44.8088,13.2003 L44.8088,13.2223 L49.1028,13.2223 L49.1028,13.2003 C49.0138,12.0123 48.2658,11.2633 46.9668,11.2633 C45.6678,11.2633 44.9188,12.0333 44.8088,13.2003 L44.8088,13.2003 Z M44.8088,15.6223 L44.8088,15.6883 C44.8088,17.0313 45.5798,17.9123 46.9668,17.9123 C47.9798,17.9123 48.6838,17.4283 48.9698,16.6573 L51.9208,16.6573 C51.4578,19.0353 49.7408,20.5323 46.9668,20.5323 C43.7078,20.5323 41.9018,18.4633 41.9018,15.3143 L41.9018,13.8603 C41.9018,10.7133 43.7078,8.6423 46.9668,8.6423 C50.2258,8.6423 52.0308,10.7133 52.0308,13.8603 L52.0308,15.6223 L44.8088,15.6223 Z" id="Fill-6" fill="#323694"></path>
                <path d="M56.6106,20.5333 L53.7036,20.5333 L53.7036,9.1713 L56.6106,9.1713 L56.6106,10.4033 C56.9406,9.6553 57.9096,8.9723 59.2526,8.9723 L60.1336,8.9723 L60.1336,11.8133 L58.7686,11.8133 C57.6666,11.8133 56.6106,12.4733 56.6106,14.0143 L56.6106,20.5333 Z" id="Fill-8" fill="#323694"></path>
                <path d="M61.5276,15.4464 L64.5666,15.4464 C64.7426,16.7454 65.7556,17.6044 67.2306,17.6044 C68.5296,17.6044 69.4326,17.1194 69.4326,16.0624 C69.4326,15.2044 68.9266,14.7194 67.8476,14.4334 L65.2486,13.7294 C62.8926,13.0904 61.7256,11.4394 61.7256,9.1714 C61.7256,6.0884 64.1476,4.6794 66.8346,4.6794 C69.9166,4.6794 71.8326,6.4854 72.1626,9.1054 L69.1236,9.1054 C68.8606,8.0704 67.7816,7.6074 66.7906,7.6074 C65.5576,7.6074 64.6766,8.0924 64.6766,9.1714 C64.6766,10.0734 65.3816,10.4704 66.2186,10.6904 L68.7286,11.3734 C71.1056,12.0114 72.3836,13.4644 72.3836,16.0624 C72.3836,18.8374 70.5776,20.5324 67.2306,20.5324 C63.8616,20.5324 61.6816,18.5084 61.5276,15.4464" id="Fill-10" fill="#323694"></path>
                <path d="M79.425,21.546 C78.808,23.263 78.632,24.518 76.606,24.518 L74.449,24.518 L74.449,21.898 L75.66,21.898 C76.188,21.898 76.342,21.634 76.43,21.392 L76.761,20.467 L72.709,9.106 L75.77,9.106 L78.302,16.35 L80.834,9.106 L83.894,9.106 L79.425,21.546 Z" id="Fill-12" fill="#323694"></path>
                <path d="M83.6306,16.6358 L86.5366,16.6358 C86.6696,17.5168 87.7036,17.9118 88.6506,17.9118 C89.2226,17.9118 90.0816,17.7808 90.0816,17.0318 C90.0816,16.5698 89.7516,16.3058 89.0696,16.1518 L86.6906,15.6218 C85.4576,15.3358 83.8946,14.3668 83.8946,12.1438 C83.8946,9.9188 85.8986,8.6428 88.2326,8.6428 C90.5446,8.6428 92.4376,9.7428 92.6366,12.3198 L89.6636,12.3198 C89.5096,11.5938 88.8706,11.2638 88.1436,11.2638 C87.3076,11.2638 86.8236,11.5938 86.8006,12.1208 C86.8006,12.6068 87.1976,12.8488 87.6816,12.9578 L90.2366,13.5308 C91.4696,13.8178 92.9886,14.6758 92.9886,17.0318 C92.9886,19.5638 90.9406,20.5318 88.5626,20.5318 C86.2066,20.5318 83.7406,19.3218 83.6306,16.6358" id="Fill-14" fill="#323694"></path>
                <path d="M103.7913,13.2003 L103.7913,13.2223 L108.0843,13.2223 L108.0843,13.2003 C107.9973,12.0123 107.2483,11.2633 105.9483,11.2633 C104.6493,11.2633 103.9003,12.0333 103.7913,13.2003 L103.7913,13.2003 Z M103.7913,15.6223 L103.7913,15.6883 C103.7913,17.0313 104.5613,17.9123 105.9483,17.9123 C106.9613,17.9123 107.6663,17.4283 107.9513,16.6573 L110.9023,16.6573 C110.4393,19.0353 108.7233,20.5323 105.9483,20.5323 C102.6893,20.5323 100.8843,18.4633 100.8843,15.3143 L100.8843,13.8603 C100.8843,10.7133 102.6893,8.6423 105.9483,8.6423 C109.2073,8.6423 111.0133,10.7133 111.0133,13.8603 L111.0133,15.6223 L103.7913,15.6223 Z" id="Fill-16" fill="#323694"></path>
                <path d="M122.6829,20.5333 L119.7759,20.5333 L119.7759,13.9043 C119.7759,12.3863 118.7189,11.7043 117.6849,11.7043 C116.6489,11.7043 115.5929,12.3863 115.5929,13.9043 L115.5929,20.5333 L112.6869,20.5333 L112.6869,9.1713 L115.5929,9.1713 L115.5929,10.1183 C116.1429,9.3473 117.1779,8.8623 118.1689,8.8623 C119.3579,8.8623 120.4369,9.3043 121.2289,10.3593 C122.0439,9.3703 123.2109,8.8623 124.7749,8.8623 C127.6599,8.8623 129.7729,10.4703 129.7729,13.7953 L129.7729,20.5333 L126.8669,20.5333 L126.8669,13.9043 C126.8669,12.3863 125.8089,11.7043 124.7749,11.7043 C123.7409,11.7043 122.6829,12.3863 122.6829,13.9043 L122.6829,20.5333 Z" id="Fill-18" fill="#323694"></path>
                <path d="M130.8743,16.6358 L133.7803,16.6358 C133.9123,17.5168 134.9463,17.9118 135.8943,17.9118 C136.4673,17.9118 137.3253,17.7808 137.3253,17.0318 C137.3253,16.5698 136.9943,16.3058 136.3123,16.1518 L133.9353,15.6218 C132.7013,15.3358 131.1383,14.3668 131.1383,12.1438 C131.1383,9.9188 133.1423,8.6428 135.4763,8.6428 C137.7873,8.6428 139.6813,9.7428 139.8803,12.3198 L136.9073,12.3198 C136.7533,11.5938 136.1133,11.2638 135.3883,11.2638 C134.5513,11.2638 134.0663,11.5938 134.0453,12.1208 C134.0453,12.6068 134.4403,12.8488 134.9253,12.9578 L137.4793,13.5308 C138.7133,13.8178 140.2313,14.6758 140.2313,17.0318 C140.2313,19.5638 138.1843,20.5318 135.8063,20.5318 C133.4493,20.5318 130.9843,19.3218 130.8743,16.6358" id="Fill-20" fill="#323694"></path>
                <path d="M99.6536,17.9122 L99.6536,20.5322 L96.8566,20.5322 C94.8326,20.5322 93.9506,19.4532 93.9506,17.6262 L93.9506,11.7912 L93.9506,9.1722 L93.9506,6.5952 L96.8566,6.5952 L96.8566,9.1722 L99.6536,9.1722 L99.6536,11.7912 L96.8566,11.7912 L96.8566,17.0102 C96.8566,17.5382 96.9896,17.9122 97.6936,17.9122 L99.6536,17.9122 Z" id="Fill-22" fill="#323694"></path>
                <g id="Group-26" transform="translate(0.000000, 2.000000)">
                    <mask id="mask-2" fill="white">
                        <use xlink:href="#path-1"></use>
                    </mask>
                    <g id="Clip-25"></g>
                    <polygon id="Fill-24" fill="#323694" mask="url(#mask-2)" points="4.3562 3.1641 0.0002 0.9841 0.0002 28.6401 8.7122 33.0001 8.7122 28.1281 4.3562 25.9491"></polygon>
                </g>
                <polygon id="Fill-27" fill="#00B4AE" points="8.7122 30.128 13.0682 32.309 13.0682 4.651 4.3562 0.293 4.3562 5.164 8.7122 7.343"></polygon>
                <polygon id="Fill-29" fill="#00B4AE" points="23.0618 24.794 24.4688 24.794 24.4688 32.145 23.0618 32.145 23.0618 29.131 20.3318 29.131 20.3318 32.145 18.9248 32.145 18.9248 24.794 20.3318 24.794 20.3318 27.733 23.0618 27.733"></polygon>
                <path d="M26.738,28.753 L26.738,28.763 L28.785,28.763 L28.785,28.753 C28.743,28.186 28.386,27.829 27.767,27.829 C27.147,27.829 26.79,28.196 26.738,28.753 L26.738,28.753 Z M26.738,29.908 L26.738,29.939 C26.738,30.58 27.105,31 27.767,31 C28.25,31 28.586,30.769 28.722,30.4 L30.13,30.4 C29.909,31.535 29.09,32.25 27.767,32.25 C26.213,32.25 25.352,31.263 25.352,29.761 L25.352,29.067 C25.352,27.566 26.213,26.579 27.767,26.579 C29.321,26.579 30.182,27.566 30.182,29.067 L30.182,29.908 L26.738,29.908 Z" id="Fill-31" fill="#00B4AE"></path>
                <path d="M32.1882,30.4854 C32.1882,30.7474 32.3882,31.0314 33.0072,31.0314 C33.7222,31.0314 34.2892,30.6324 34.2892,29.9494 L34.2892,29.7714 C33.5012,29.8234 32.7452,29.8864 32.4822,30.0234 C32.2512,30.1384 32.1882,30.2554 32.1882,30.4854 L32.1882,30.4854 Z M34.2672,28.6154 C34.1732,28.1334 33.8272,27.8284 33.2592,27.8284 C32.7762,27.8284 32.4402,28.0594 32.3042,28.4274 L30.9072,28.4274 C31.1272,27.2934 31.9362,26.5784 33.2592,26.5784 C34.8132,26.5784 35.6742,27.5664 35.6742,29.0674 L35.6742,32.1444 L34.2892,32.1444 L34.2892,31.5244 C34.0362,31.9344 33.6062,32.2504 32.7762,32.2504 C31.5372,32.2504 30.8022,31.6404 30.8022,30.6424 C30.8022,29.8554 31.0752,29.3824 31.8312,29.0254 C32.3672,28.7734 33.4482,28.6894 34.2672,28.6274 L34.2672,28.6154 Z" id="Fill-33" fill="#00B4AE"></path>
                <path d="M38.636,30.8946 L38.636,32.1446 L37.964,32.1446 C36.998,32.1446 36.578,31.6296 36.578,30.7586 L36.578,24.7926 L37.964,24.7926 L37.964,30.4646 C37.964,30.7166 38.027,30.8946 38.363,30.8946 L38.636,30.8946 Z" id="Fill-35" fill="#00B4AE"></path>
                <path d="M42.2585,30.8946 L42.2585,32.1446 L40.9255,32.1446 C39.9585,32.1446 39.5385,31.6296 39.5385,30.7586 L39.5385,27.9756 L38.7725,27.9756 L38.7725,26.7256 L39.5385,26.7256 L39.5385,25.4976 L40.9255,25.4976 L40.9255,26.7256 L42.2585,26.7256 L42.2585,27.9756 L40.9255,27.9756 L40.9255,30.4646 C40.9255,30.7166 40.9885,30.8946 41.3245,30.8946 L42.2585,30.8946 Z" id="Fill-37" fill="#00B4AE"></path>
                <path d="M47.719,32.1446 L46.333,32.1446 L46.333,28.9836 C46.333,28.2486 45.829,27.9336 45.304,27.9336 C44.779,27.9336 44.275,28.2486 44.275,28.9836 L44.275,32.1446 L42.889,32.1446 L42.889,24.7926 L44.275,24.7926 L44.275,27.1986 C44.516,26.8306 45.062,26.5786 45.545,26.5786 C46.648,26.5786 47.719,27.3346 47.719,28.9306 L47.719,32.1446 Z" id="Fill-39" fill="#00B4AE"></path>
                <path d="M48.2351,29.8233 L49.6841,29.8233 C49.7681,30.4433 50.2511,30.8523 50.9551,30.8523 C51.5741,30.8523 52.0041,30.6223 52.0041,30.1173 C52.0041,29.7093 51.7631,29.4773 51.2481,29.3413 L50.0091,29.0053 C48.8861,28.7003 48.3291,27.9133 48.3291,26.8313 C48.3291,25.3603 49.4841,24.6883 50.7651,24.6883 C52.2351,24.6883 53.1491,25.5503 53.3071,26.8003 L51.8581,26.8003 C51.7321,26.3053 51.2171,26.0863 50.7451,26.0863 C50.1561,26.0863 49.7371,26.3163 49.7371,26.8313 C49.7371,27.2613 50.0731,27.4503 50.4711,27.5553 L51.6681,27.8823 C52.8021,28.1853 53.4121,28.8793 53.4121,30.1173 C53.4121,31.4403 52.5511,32.2503 50.9551,32.2503 C49.3481,32.2503 48.3081,31.2823 48.2351,29.8233" id="Fill-41" fill="#00B4AE"></path>
                <path d="M58.8928,32.1446 L57.5068,32.1446 L57.5068,28.9836 C57.5068,28.2486 57.0028,27.9336 56.4778,27.9336 C55.9538,27.9336 55.4488,28.2486 55.4488,28.9836 L55.4488,32.1446 L54.0628,32.1446 L54.0628,24.7926 L55.4488,24.7926 L55.4488,27.1986 C55.6908,26.8306 56.2368,26.5786 56.7198,26.5786 C57.8218,26.5786 58.8928,27.3346 58.8928,28.9306 L58.8928,32.1446 Z" id="Fill-43" fill="#00B4AE"></path>
                <path d="M61.0037,30.4854 C61.0037,30.7474 61.2037,31.0314 61.8237,31.0314 C62.5377,31.0314 63.1047,30.6324 63.1047,29.9494 L63.1047,29.7714 C62.3167,29.8234 61.5607,29.8864 61.2987,30.0234 C61.0677,30.1384 61.0037,30.2554 61.0037,30.4854 L61.0037,30.4854 Z M63.0837,28.6154 C62.9887,28.1334 62.6427,27.8284 62.0757,27.8284 C61.5927,27.8284 61.2567,28.0594 61.1197,28.4274 L59.7227,28.4274 C59.9437,27.2934 60.7527,26.5784 62.0757,26.5784 C63.6287,26.5784 64.4907,27.5664 64.4907,29.0674 L64.4907,32.1444 L63.1047,32.1444 L63.1047,31.5244 C62.8527,31.9344 62.4217,32.2504 61.5927,32.2504 C60.3537,32.2504 59.6177,31.6404 59.6177,30.6424 C59.6177,29.8554 59.8907,29.3824 60.6467,29.0254 C61.1827,28.7734 62.2647,28.6894 63.0837,28.6274 L63.0837,28.6154 Z" id="Fill-45" fill="#00B4AE"></path>
                <path d="M66.801,32.1446 L65.415,32.1446 L65.415,26.7256 L66.801,26.7256 L66.801,27.3146 C66.959,26.9576 67.421,26.6316 68.061,26.6316 L68.481,26.6316 L68.481,27.9866 L67.83,27.9866 C67.306,27.9866 66.801,28.3016 66.801,29.0366 L66.801,32.1446 Z" id="Fill-47" fill="#00B4AE"></path>
                <path d="M70.1721,28.753 L70.1721,28.763 L72.2201,28.763 L72.2201,28.753 C72.1771,28.186 71.8201,27.829 71.2011,27.829 C70.5811,27.829 70.2241,28.196 70.1721,28.753 L70.1721,28.753 Z M70.1721,29.908 L70.1721,29.939 C70.1721,30.58 70.5401,31 71.2011,31 C71.6841,31 72.0201,30.769 72.1561,30.4 L73.5641,30.4 C73.3431,31.535 72.5241,32.25 71.2011,32.25 C69.6471,32.25 68.7861,31.263 68.7861,29.761 L68.7861,29.067 C68.7861,27.566 69.6471,26.579 71.2011,26.579 C72.7551,26.579 73.6161,27.566 73.6161,29.067 L73.6161,29.908 L70.1721,29.908 Z" id="Fill-49" fill="#00B4AE"></path>
                <path d="M142.8245,9.7022 L143.3385,9.7022 C143.5185,9.7022 143.6395,9.7932 143.6395,9.9742 C143.6395,10.1502 143.5185,10.2412 143.3385,10.2412 L142.8245,10.2412 L142.8245,9.7022 Z M144.0575,11.4652 L143.5245,10.5582 C143.8205,10.4972 143.9925,10.2912 143.9925,9.9702 C143.9925,9.5862 143.7455,9.3602 143.3385,9.3602 L142.4825,9.3602 L142.4825,11.4652 L142.8245,11.4652 L142.8245,10.5732 L143.1515,10.5732 L143.6765,11.4652 L144.0575,11.4652 Z M143.1825,11.9012 C144.0085,11.9012 144.6675,11.2372 144.6675,10.4122 C144.6675,9.5862 144.0085,8.9232 143.1825,8.9232 C142.3565,8.9232 141.6975,9.5862 141.6975,10.4122 C141.6975,11.2372 142.3565,11.9012 143.1825,11.9012 L143.1825,11.9012 Z M143.1825,8.6002 C144.1835,8.6002 144.9945,9.4102 144.9945,10.4122 C144.9945,11.4132 144.1835,12.2242 143.1825,12.2242 C142.1805,12.2242 141.3695,11.4132 141.3695,10.4122 C141.3695,9.4102 142.1805,8.6002 143.1825,8.6002 L143.1825,8.6002 Z" id="Fill-51" fill="#323694"></path>
            </g>
        </g>
    </g>
</svg>