<?xml version="1.0" encoding="UTF-8"?>
<svg width="143px" height="32px" viewBox="0 0 143 32" version="1.1" xmlns="http://www.w3.org/2000/svg" xmlns:xlink="http://www.w3.org/1999/xlink">
    <!-- Generator: Sketch 61.2 (89653) - https://sketch.com -->
    <title>Group 54</title>
    <desc>Created with Sketch.</desc>
    <defs>
        <polygon id="path-1" points="-0.5341 0.6464 7.4659 0.6464 7.4659 29.6464 -0.5341 29.6464"></polygon>
    </defs>
    <g id="Symbols" stroke="none" stroke-width="1" fill="none" fill-rule="evenodd">
        <g id="logos/logo-healthshare" transform="translate(-2.000000, -2.000000)">
            <g id="Group-54" transform="translate(2.000000, 1.000000)">
                <polygon id="Fill-1" fill="#323694" points="16.937 24.2391 19.887 24.2391 19.887 8.3881 16.937 8.3881"></polygon>
                <g id="Group-53" transform="translate(0.000000, 0.707100)">
                    <path d="M31.6453,23.5333 L28.7393,23.5333 L28.7393,16.9043 C28.7393,15.3633 27.6823,14.7043 26.5813,14.7043 C25.4803,14.7043 24.4233,15.3633 24.4233,16.9043 L24.4233,23.5333 L21.5173,23.5333 L21.5173,12.1713 L24.4233,12.1713 L24.4233,13.1623 C24.9293,12.3913 26.0743,11.8623 27.0873,11.8623 C29.3993,11.8623 31.6453,13.4473 31.6453,16.7953 L31.6453,23.5333 Z" id="Fill-2" fill="#323694"></path>
                    <path d="M38.9773,20.9122 L38.9773,23.5322 L36.1813,23.5322 C34.1553,23.5322 33.2743,22.4532 33.2743,20.6262 L33.2743,14.7912 L33.2743,12.1722 L33.2743,9.5952 L36.1813,9.5952 L36.1813,12.1722 L38.9773,12.1722 L38.9773,14.7912 L36.1813,14.7912 L36.1813,20.0102 C36.1813,20.5382 36.3133,20.9122 37.0173,20.9122 L38.9773,20.9122 Z" id="Fill-4" fill="#323694"></path>
                    <path d="M42.8088,16.2003 L42.8088,16.2223 L47.1028,16.2223 L47.1028,16.2003 C47.0138,15.0123 46.2658,14.2633 44.9668,14.2633 C43.6678,14.2633 42.9188,15.0333 42.8088,16.2003 L42.8088,16.2003 Z M42.8088,18.6223 L42.8088,18.6883 C42.8088,20.0313 43.5798,20.9123 44.9668,20.9123 C45.9798,20.9123 46.6838,20.4283 46.9698,19.6573 L49.9208,19.6573 C49.4578,22.0353 47.7408,23.5323 44.9668,23.5323 C41.7078,23.5323 39.9018,21.4633 39.9018,18.3143 L39.9018,16.8603 C39.9018,13.7133 41.7078,11.6423 44.9668,11.6423 C48.2258,11.6423 50.0308,13.7133 50.0308,16.8603 L50.0308,18.6223 L42.8088,18.6223 Z" id="Fill-6" fill="#323694"></path>
                    <path d="M54.6106,23.5333 L51.7036,23.5333 L51.7036,12.1713 L54.6106,12.1713 L54.6106,13.4033 C54.9406,12.6553 55.9096,11.9723 57.2526,11.9723 L58.1336,11.9723 L58.1336,14.8133 L56.7686,14.8133 C55.6666,14.8133 54.6106,15.4733 54.6106,17.0143 L54.6106,23.5333 Z" id="Fill-8" fill="#323694"></path>
                    <path d="M59.5276,18.4464 L62.5666,18.4464 C62.7426,19.7454 63.7556,20.6044 65.2306,20.6044 C66.5296,20.6044 67.4326,20.1194 67.4326,19.0624 C67.4326,18.2044 66.9266,17.7194 65.8476,17.4334 L63.2486,16.7294 C60.8926,16.0904 59.7256,14.4394 59.7256,12.1714 C59.7256,9.0884 62.1476,7.6794 64.8346,7.6794 C67.9166,7.6794 69.8326,9.4854 70.1626,12.1054 L67.1236,12.1054 C66.8606,11.0704 65.7816,10.6074 64.7906,10.6074 C63.5576,10.6074 62.6766,11.0924 62.6766,12.1714 C62.6766,13.0734 63.3816,13.4704 64.2186,13.6904 L66.7286,14.3734 C69.1056,15.0114 70.3836,16.4644 70.3836,19.0624 C70.3836,21.8374 68.5776,23.5324 65.2306,23.5324 C61.8616,23.5324 59.6816,21.5084 59.5276,18.4464" id="Fill-10" fill="#323694"></path>
                    <path d="M77.425,24.546 C76.808,26.263 76.632,27.518 74.606,27.518 L72.449,27.518 L72.449,24.898 L73.66,24.898 C74.188,24.898 74.342,24.634 74.43,24.392 L74.761,23.467 L70.709,12.106 L73.77,12.106 L76.302,19.35 L78.834,12.106 L81.894,12.106 L77.425,24.546 Z" id="Fill-12" fill="#323694"></path>
                    <path d="M81.6306,19.6358 L84.5366,19.6358 C84.6696,20.5168 85.7036,20.9118 86.6506,20.9118 C87.2226,20.9118 88.0816,20.7808 88.0816,20.0318 C88.0816,19.5698 87.7516,19.3058 87.0696,19.1518 L84.6906,18.6218 C83.4576,18.3358 81.8946,17.3668 81.8946,15.1438 C81.8946,12.9188 83.8986,11.6428 86.2326,11.6428 C88.5446,11.6428 90.4376,12.7428 90.6366,15.3198 L87.6636,15.3198 C87.5096,14.5938 86.8706,14.2638 86.1436,14.2638 C85.3076,14.2638 84.8236,14.5938 84.8006,15.1208 C84.8006,15.6068 85.1976,15.8488 85.6816,15.9578 L88.2366,16.5308 C89.4696,16.8178 90.9886,17.6758 90.9886,20.0318 C90.9886,22.5638 88.9406,23.5318 86.5626,23.5318 C84.2066,23.5318 81.7406,22.3218 81.6306,19.6358" id="Fill-14" fill="#323694"></path>
                    <path d="M101.7913,16.2003 L101.7913,16.2223 L106.0843,16.2223 L106.0843,16.2003 C105.9973,15.0123 105.2483,14.2633 103.9483,14.2633 C102.6493,14.2633 101.9003,15.0333 101.7913,16.2003 L101.7913,16.2003 Z M101.7913,18.6223 L101.7913,18.6883 C101.7913,20.0313 102.5613,20.9123 103.9483,20.9123 C104.9613,20.9123 105.6663,20.4283 105.9513,19.6573 L108.9023,19.6573 C108.4393,22.0353 106.7233,23.5323 103.9483,23.5323 C100.6893,23.5323 98.8843,21.4633 98.8843,18.3143 L98.8843,16.8603 C98.8843,13.7133 100.6893,11.6423 103.9483,11.6423 C107.2073,11.6423 109.0133,13.7133 109.0133,16.8603 L109.0133,18.6223 L101.7913,18.6223 Z" id="Fill-16" fill="#323694"></path>
                    <path d="M120.6829,23.5333 L117.7759,23.5333 L117.7759,16.9043 C117.7759,15.3863 116.7189,14.7043 115.6849,14.7043 C114.6489,14.7043 113.5929,15.3863 113.5929,16.9043 L113.5929,23.5333 L110.6869,23.5333 L110.6869,12.1713 L113.5929,12.1713 L113.5929,13.1183 C114.1429,12.3473 115.1779,11.8623 116.1689,11.8623 C117.3579,11.8623 118.4369,12.3043 119.2289,13.3593 C120.0439,12.3703 121.2109,11.8623 122.7749,11.8623 C125.6599,11.8623 127.7729,13.4703 127.7729,16.7953 L127.7729,23.5333 L124.8669,23.5333 L124.8669,16.9043 C124.8669,15.3863 123.8089,14.7043 122.7749,14.7043 C121.7409,14.7043 120.6829,15.3863 120.6829,16.9043 L120.6829,23.5333 Z" id="Fill-18" fill="#323694"></path>
                    <path d="M128.8743,19.6358 L131.7803,19.6358 C131.9123,20.5168 132.9463,20.9118 133.8943,20.9118 C134.4673,20.9118 135.3253,20.7808 135.3253,20.0318 C135.3253,19.5698 134.9943,19.3058 134.3123,19.1518 L131.9353,18.6218 C130.7013,18.3358 129.1383,17.3668 129.1383,15.1438 C129.1383,12.9188 131.1423,11.6428 133.4763,11.6428 C135.7873,11.6428 137.6813,12.7428 137.8803,15.3198 L134.9073,15.3198 C134.7533,14.5938 134.1133,14.2638 133.3883,14.2638 C132.5513,14.2638 132.0663,14.5938 132.0453,15.1208 C132.0453,15.6068 132.4403,15.8488 132.9253,15.9578 L135.4793,16.5308 C136.7133,16.8178 138.2313,17.6758 138.2313,20.0318 C138.2313,22.5638 136.1843,23.5318 133.8063,23.5318 C131.4493,23.5318 128.9843,22.3218 128.8743,19.6358" id="Fill-20" fill="#323694"></path>
                    <path d="M97.6536,20.9122 L97.6536,23.5322 L94.8566,23.5322 C92.8326,23.5322 91.9506,22.4532 91.9506,20.6262 L91.9506,14.7912 L91.9506,12.1722 L91.9506,9.5952 L94.8566,9.5952 L94.8566,12.1722 L97.6536,12.1722 L97.6536,14.7912 L94.8566,14.7912 L94.8566,20.0102 C94.8566,20.5382 94.9896,20.9122 95.6936,20.9122 L97.6536,20.9122 Z" id="Fill-22" fill="#323694"></path>
                    <g id="Group-26" transform="translate(0.534100, 2.646500)">
                        <mask id="mask-2" fill="white">
                            <use xlink:href="#path-1"></use>
                        </mask>
                        <g id="Clip-25"></g>
                        <polygon id="Fill-24" fill="#323694" mask="url(#mask-2)" points="3.4659 2.62103768 -0.5341 0.6464 -0.5341 25.6971246 7.4659 29.6464 7.4659 25.2333565 3.4659 23.2596246"></polygon>
                    </g>
                    <polygon id="Fill-27" fill="#00B4AE" points="8.5341 28.6028343 12.5341 30.6465 12.5341 4.73008321 4.5341 0.6465 4.5341 5.21078036 8.5341 7.25257196"></polygon>
                    <path d="M140.8245,12.7022 L141.3385,12.7022 C141.5185,12.7022 141.6395,12.7932 141.6395,12.9742 C141.6395,13.1502 141.5185,13.2412 141.3385,13.2412 L140.8245,13.2412 L140.8245,12.7022 Z M142.0575,14.4652 L141.5245,13.5582 C141.8205,13.4972 141.9925,13.2912 141.9925,12.9702 C141.9925,12.5862 141.7455,12.3602 141.3385,12.3602 L140.4825,12.3602 L140.4825,14.4652 L140.8245,14.4652 L140.8245,13.5732 L141.1515,13.5732 L141.6765,14.4652 L142.0575,14.4652 Z M141.1825,14.9012 C142.0085,14.9012 142.6675,14.2372 142.6675,13.4122 C142.6675,12.5862 142.0085,11.9232 141.1825,11.9232 C140.3565,11.9232 139.6975,12.5862 139.6975,13.4122 C139.6975,14.2372 140.3565,14.9012 141.1825,14.9012 L141.1825,14.9012 Z M141.1825,11.6002 C142.1835,11.6002 142.9945,12.4102 142.9945,13.4122 C142.9945,14.4132 142.1835,15.2242 141.1825,15.2242 C140.1805,15.2242 139.3695,14.4132 139.3695,13.4122 C139.3695,12.4102 140.1805,11.6002 141.1825,11.6002 L141.1825,11.6002 Z" id="Fill-51" fill="#323694"></path>
                </g>
            </g>
        </g>
    </g>
</svg>