<?xml version="1.0" encoding="utf-8"?>
<!-- Generator: Adobe Illustrator 22.1.0, SVG Export Plug-In . SVG Version: 6.00 Build 0)  -->
<svg version="1.1" id="Layer_1" xmlns="http://www.w3.org/2000/svg" xmlns:xlink="http://www.w3.org/1999/xlink" x="0px" y="0px"
	 viewBox="0 0 32 32" style="enable-background:new 0 0 32 32;" xml:space="preserve">
<style type="text/css">
	.st0{fill:#2D368F;}
	.st1{fill:#2D368F;stroke:#888888;stroke-width:0.2503;stroke-miterlimit:10;}
	.st2{fill:none;stroke:#888888;stroke-width:3.0031;stroke-miterlimit:10;}
	.st3{fill:#FFFFFF;}
	.st4{fill:#00B5AF;}
</style>
<g>
	<g>
		<g>
			<path class="st0" d="M32,32H0V0h32V32z M3,29h26v-26H3V29z"/>
		</g>
	</g>
	<path class="st1" d="M17.5,20.3"/>
	<path class="st1" d="M21.8,19.5"/>
	<path class="st2" d="M10.1,9.2"/>
	<path class="st2" d="M17.1,9.2"/>
</g>
<rect x="2.9" y="3" class="st3" width="26.1" height="26.1"/>
<g>
	<path class="st4" d="M5.9,9.9h2.7v4.8h4.9V9.9h2.7v12.3h-2.7v-4.9H8.6v4.9H5.9V9.9z"/>
	<path class="st4" d="M16.7,20.3l1.6-1.9c1.1,0.9,2.2,1.5,3.6,1.5c1.1,0,1.7-0.4,1.7-1.2v0c0-0.7-0.4-1-2.4-1.6
		c-2.4-0.6-4-1.3-4-3.7v0c0-2.2,1.8-3.7,4.2-3.7c1.8,0,3.3,0.6,4.5,1.6l-1.4,2c-1.1-0.8-2.1-1.2-3.2-1.2c-1,0-1.6,0.5-1.6,1.1v0
		c0,0.8,0.5,1.1,2.6,1.6c2.5,0.6,3.8,1.5,3.8,3.7v0c0,2.4-1.8,3.8-4.5,3.8C20,22.3,18.1,21.6,16.7,20.3z"/>
</g>
</svg>
