<svg xmlns="http://www.w3.org/2000/svg" viewBox="0 0 127.2 127.2"><title>Asset 50</title><rect x="6" y="6" width="115.2" height="115.2" fill="#fff"/><path d="M127.2,127.2H0V0H127.2ZM12,115.2H115.2V12H12Z" fill="#2e3191"/><path d="M69.58,80.74" fill="#2e3191" stroke="#888" stroke-miterlimit="10"/><path d="M86.83,77.57" fill="#2e3191" stroke="#888" stroke-miterlimit="10"/><path d="M40,36.43" fill="none" stroke="#888" stroke-miterlimit="10" stroke-width="12"/><path d="M68,36.43" fill="none" stroke="#888" stroke-miterlimit="10" stroke-width="12"/><path d="M46.67,88.11H37.29v-49h9.38Z" fill="#25b4a9"/><path d="M67.95,67.95V88.11H58.57v-49H79.22c9.94,0,15.47,5.6,15.47,14.42,0,7.28-3.71,12.32-10.57,13.93L96.3,88.11H85.52L73.69,67.95ZM79.43,48.41H67.95V58.84H79.43c3.57,0,5.88-1.82,5.88-5.18S83,48.41,79.43,48.41Z" fill="#25b4a9"/><rect x="32.87" y="39.09" width="18.17" height="8.62" fill="#25b4a9"/><rect x="32.87" y="79.43" width="18.17" height="8.68" fill="#25b4a9"/></svg>