<?xml version="1.0" encoding="UTF-8"?>
<svg width="32px" height="32px" viewBox="0 0 32 32" version="1.1" xmlns="http://www.w3.org/2000/svg" xmlns:xlink="http://www.w3.org/1999/xlink">
    <!-- Generator: Sketch 52.5 (67469) - http://www.bohemiancoding.com/sketch -->
    <title>Artboard</title>
    <desc>Created with Sketch.</desc>
    <g id="Artboard" stroke="none" stroke-width="1" fill="none" fill-rule="evenodd">
        <g id="Group" transform="translate(0.000000, 1.000000)" fill="#636363" fill-rule="nonzero">
            <g id="icon-list">
                <path d="M4,2.11743646 L24,2.11743646 L24,-0.0002106 L4,-0.0002106 L4,2.11743646 Z M0,2.11743646 L1.99625503,2.11743646 L1.99625503,-0.0002106 L0,-0.0002106 L0,2.11743646 Z M4,7.41514669 L24,7.41514669 L24,5.29749964 L4,5.29749964 L4,7.41514669 Z M0,7.41514669 L1.99625503,7.41514669 L1.99625503,5.29749964 L0,5.29749964 L0,7.41514669 Z M4,12.7058824 L24,12.7058824 L24,10.5882353 L4,10.5882353 L4,12.7058824 Z M0,12.7058824 L1.99625503,12.7058824 L1.99625503,10.5882353 L0,10.5882353 L0,12.7058824 Z M4,18 L24,18 L24,15.8823529 L4,15.8823529 L4,18 Z M0,18 L1.99625503,18 L1.99625503,15.8823529 L0,15.8823529 L0,18 Z" id="Page-1"></path>
            </g>
            <g id="icon-alerts" transform="translate(9.100000, 8.600000)">
                <path d="M19.04056,16.0304187 C20.21712,17.7112587 21.7888,18.3918496 21.7888,18.3918496 L13.07064,18.3918496 C13.07064,19.5896896 12.09384,20.5644715 10.8944,20.5644715 C9.69408,20.5644715 8.71816,19.5896896 8.71816,18.3918496 L0,18.3918496 C0,18.3918496 1.5708,17.7112587 2.74824,16.0304187 L19.04056,16.0304187 Z M18.129232,14.2045909 C18.148592,14.2643073 18.168832,14.3231455 18.189952,14.3819836 L3.598672,14.3819836 C3.619792,14.3231455 3.640032,14.2643073 3.659392,14.2045909 C4.641472,11.1748636 4.096752,10.3906473 4.820992,7.0746327 C5.422912,4.32328909 7.261232,3.11666727 8.759872,2.58712364 C8.733472,2.45188364 8.717632,2.31400909 8.717632,2.17174364 C8.717632,0.97478182 9.694432,0 10.893872,0 C12.094192,0 13.070112,0.97478182 13.070112,2.17174364 C13.070112,2.31400909 13.054272,2.45276182 13.028752,2.58712364 C14.526512,3.11666727 16.365712,4.32328909 16.966752,7.0746327 C17.691872,10.3906473 17.146272,11.1748636 18.129232,14.2045909 Z"></path>
            </g>
        </g>
    </g>
</svg>