<svg width="131" height="153" viewBox="0 0 131 153" fill="none" xmlns="http://www.w3.org/2000/svg">
<path d="M86.2379 1.70627C91.9155 1.93338 96.9118 3.97732 100.545 8.51942C102.589 11.0176 103.498 13.9699 103.498 17.1494C103.725 21.2373 103.498 25.3252 103.498 29.4131C103.498 30.3215 103.725 30.7757 104.86 31.0028C114.172 33.0467 121.212 38.4973 125.527 46.9001C128.706 53.032 129.842 59.618 130.296 66.4312C130.296 67.7938 130.75 69.1564 130.75 70.2919C130.75 78.6948 129.161 86.8706 126.208 94.5922C123.256 101.632 119.395 108.218 114.626 114.35C109.63 120.709 103.952 126.387 97.8202 131.61C91.9155 136.607 85.7837 141.149 79.1976 145.237C75.564 147.508 71.9303 149.779 68.0695 151.595C66.2527 152.504 64.6629 152.504 62.8461 151.595C54.8974 147.28 47.1759 142.511 39.9085 136.834C33.3225 131.837 27.1906 126.387 21.7401 120.255C15.1541 112.988 9.70356 105.266 5.61567 96.1819C2.66331 89.3688 0.846463 82.5556 0.392254 75.0611C0.392254 73.2443 -0.0619526 71.6546 0.165152 69.8377C0.619362 63.0246 1.30067 56.2114 3.79883 49.8525C6.06987 43.7207 9.70355 38.4973 15.1541 34.8636C18.3335 32.8196 21.7401 31.457 25.3738 30.5486C27.6448 30.0944 27.1906 30.3215 27.1906 28.2775C27.1906 24.4168 26.9635 20.7831 27.1906 16.9223C27.6448 8.51942 33.3225 2.16048 41.7253 1.02496C42.8609 0.79785 43.9964 0.797852 45.1319 0.797852C51.718 1.70627 79.1976 1.70627 86.2379 1.70627ZM120.758 72.3359C120.758 69.6106 120.531 66.8854 120.304 64.3872C119.849 59.618 118.714 54.8488 116.216 50.7609C114.172 47.1272 111.219 44.1749 107.359 42.358C103.498 40.5412 99.41 40.3141 95.3221 40.3141C90.0987 40.5412 85.5566 42.358 81.9229 45.9917C79.1976 48.4899 76.9266 51.4422 74.4284 54.3946C72.6116 56.6657 70.7948 58.7096 68.7508 60.7535C66.7069 62.7975 63.7545 62.7975 61.7106 60.7535C61.0292 60.2993 60.575 59.618 60.1208 59.1638C56.7143 55.5301 53.7619 51.4422 50.3553 47.8086C47.1759 44.402 43.3151 41.9038 38.773 40.9954C34.458 39.8599 30.3701 39.8599 26.2822 40.9954C23.7841 41.6767 21.513 42.5851 19.4691 44.1749C15.8354 46.9001 13.5643 50.7609 12.2017 55.0759C9.70355 63.4788 9.24934 72.1088 10.612 80.7388C11.7475 88.0061 14.6999 94.8193 18.5606 101.178C23.3298 109.127 29.4617 115.94 36.2748 122.072C41.044 126.614 46.2674 130.475 51.718 134.336C55.8058 137.288 60.1208 140.013 64.6629 142.511C65.1171 142.738 65.5713 142.738 66.0256 142.511C68.5237 141.149 71.0219 139.559 73.52 137.969C79.879 133.881 86.0108 129.339 91.6884 124.343C96.2305 120.482 100.546 116.167 104.406 111.625C109.63 105.493 114.172 98.6801 117.124 91.1856C119.622 84.8267 120.758 78.4677 120.758 72.3359ZM44.2235 11.4718C40.1356 11.4718 37.4103 13.7428 36.9561 17.8307C36.5019 21.9186 36.729 26.0065 36.729 30.0944C36.729 30.5486 36.9561 30.7757 37.4104 30.7757C38.3188 31.0028 39.2272 31.0028 40.3627 31.2299C45.5861 32.1383 49.9011 34.4094 53.989 37.5888C58.0769 40.9954 61.2564 45.0833 64.4358 48.9441C65.3443 50.0796 65.3442 50.0796 66.2527 48.9441C68.9779 45.5375 71.7032 42.1309 75.1098 38.9515C77.6079 36.6804 80.1061 34.8636 83.0584 33.2738C86.2379 31.6841 89.6445 31.0028 93.2781 30.5486C93.9595 30.5486 94.1866 30.3215 94.1866 29.6402C94.1866 25.7794 94.1866 21.9186 94.1866 18.0578C94.1866 15.5597 93.051 13.5157 90.78 12.3802C89.4174 11.6989 87.8276 11.2447 86.2379 11.2447C78.9705 11.4718 51.0366 11.4718 44.2235 11.4718Z" fill="#E63876"/>
<path d="M60.1208 118.212C60.1208 115.26 60.1208 112.307 60.1208 109.128C60.1208 108.446 59.8937 107.992 58.9853 107.765C51.2637 105.04 46.4945 98.2267 46.7216 90.5052C46.9487 80.9668 54.6703 73.4723 63.9816 73.0181C70.5676 72.791 76.0182 75.2892 79.6518 80.5126C83.7397 86.1902 84.1939 92.322 81.0145 98.681C78.9705 103.223 75.1097 105.948 70.5676 107.765C69.8863 107.992 69.6592 108.446 69.6592 109.128C69.6592 115.033 69.6592 120.937 69.6592 126.842C69.6592 129.34 68.0695 131.384 65.5713 131.838C62.619 132.292 59.8937 130.249 59.8937 127.296C59.8937 124.344 60.1208 121.164 60.1208 118.212ZM73.2929 90.9594C73.2929 86.4173 69.6592 82.5565 64.89 82.5565C60.3479 82.5565 56.4871 86.4173 56.4871 90.9594C56.4871 95.5015 60.3479 99.1352 64.89 99.3623C69.4321 99.1352 73.2929 95.5015 73.2929 90.9594Z" fill="#E63876"/>
</svg>
